<?xml version="1.0" standalone="no"?>
<!DOCTYPE svg PUBLIC "-//W3C//DTD SVG 20010904//EN"
 "http://www.w3.org/TR/2001/REC-SVG-20010904/DTD/svg10.dtd">
<svg version="1.0" xmlns="http://www.w3.org/2000/svg"
 width="900.000000pt" height="900.000000pt" viewBox="0 0 900.000000 900.000000"
 preserveAspectRatio="xMidYMid meet">

<g transform="translate(0.000000,900.000000) scale(0.100000,-0.100000)"
fill="#000000" stroke="none">
<path d="M3245 6760 c-451 -451 -821 -826 -823 -835 -2 -9 280 -299 692 -712
383 -383 696 -703 696 -712 0 -8 -58 -73 -130 -144 -71 -71 -130 -133 -130
-138 0 -5 -4 -9 -10 -9 -15 0 -50 -32 -44 -41 2 -4 -4 -10 -14 -13 -10 -4 -25
-18 -32 -31 -7 -14 -19 -25 -27 -25 -7 0 -13 -7 -13 -15 0 -8 -5 -15 -11 -15
-11 0 -159 -150 -159 -162 0 -5 -4 -8 -9 -8 -10 0 -131 -119 -131 -130 0 -3
-11 -13 -25 -20 -14 -7 -25 -16 -25 -20 0 -7 -68 -80 -74 -80 -8 0 -126 -123
-126 -131 0 -5 -6 -9 -12 -9 -7 0 -22 -14 -33 -30 -11 -16 -26 -30 -32 -30 -7
0 -13 -6 -13 -13 0 -8 -10 -19 -23 -26 -12 -6 -31 -25 -42 -41 -11 -17 -26
-30 -32 -30 -7 0 -13 -3 -13 -7 0 -8 -9 -18 -117 -125 -29 -29 -53 -56 -53
-60 0 -4 -7 -8 -15 -8 -8 0 -15 -5 -15 -11 0 -6 -7 -17 -15 -25 -8 -9 -15 -20
-15 -26 0 -6 371 -381 824 -834 l825 -823 1533 1534 c843 843 1534 1538 1536
1544 2 6 -459 474 -1025 1040 -565 566 -1101 1103 -1190 1194 -90 90 -163 163
-163 162 0 -2 -30 29 -67 67 -38 38 -73 75 -80 81 -217 217 -541 537 -545 537
-2 0 -372 -369 -823 -820z"/>
</g>
</svg>
